<svg xmlns="http://www.w3.org/2000/svg" width="44" height="44" viewBox="0 0 44 44">
  <g id="Group_702" data-name="Group 702" transform="translate(-506.999 -650.187)">
    <rect id="Rectangle_49" data-name="Rectangle 49" width="44" height="44" rx="4" transform="translate(506.999 650.187)" fill="#f40076"/>
    <g id="icons8-account-90" transform="translate(516.404 659)">
      <path id="Path_245" data-name="Path 245" d="M25.167-79.917a3.251,3.251,0,0,1,.5,1.336c-.076.038-3.168,1.679-6.87,3.626C13.527-72.245,12-71.291,12-70.719a1.171,1.171,0,0,0,.572.992c.343.115,3.511-1.259,7.442-3.282l6.87-3.511.458.954c.229.534.534.992.687.992.343,0,3.282-5.61,3.053-5.839a20.072,20.072,0,0,0-3.359-.42L24.557-81.1Z" transform="translate(-12 81.1)" fill="#fff"/>
      <path id="Path_246" data-name="Path 246" d="M66.267-59.7A82.412,82.412,0,0,0,66-50.5V-41.6h4.58L70.5-50.689l-.115-9.045-1.908-.114A5.177,5.177,0,0,0,66.267-59.7Z" transform="translate(-45.39 67.978)" fill="#fff"/>
      <path id="Path_247" data-name="Path 247" d="M48.267-50.7A55.326,55.326,0,0,0,48-43.215v7.175h4.58L52.5-43.406l-.115-7.328-1.908-.115A5.177,5.177,0,0,0,48.267-50.7Z" transform="translate(-34.26 62.413)" fill="#fff"/>
      <path id="Path_248" data-name="Path 248" d="M30.267-41.7A33.641,33.641,0,0,0,30-35.933v5.458h4.618L34.5-36.124l-.115-5.61-1.908-.114A5.177,5.177,0,0,0,30.267-41.7Z" transform="translate(-23.13 56.848)" fill="#fff"/>
      <path id="Path_249" data-name="Path 249" d="M12.267-32.7A17.352,17.352,0,0,0,12-28.65v3.74h4.618L16.5-28.841l-.115-3.893-1.908-.115A5.177,5.177,0,0,0,12.267-32.7Z" transform="translate(-12 51.283)" fill="#fff"/>
    </g>
  </g>
</svg>
